<?xml version="1.0" encoding="iso-8859-1"?>
<!-- Generator: Adobe Illustrator 19.0.0, SVG Export Plug-In . SVG Version: 6.00 Build 0)  -->
<svg version="1.1" id="Layer_1" xmlns="http://www.w3.org/2000/svg" xmlns:xlink="http://www.w3.org/1999/xlink" x="0px" y="0px"
	 viewBox="0 0 512 512" style="enable-background:new 0 0 512 512;" xml:space="preserve">
<path style="fill:#B6E892;" d="M450.587,61.413C412.663,23.488,360.303,0,302.56,0c-12.853,0-23.274,10.42-23.274,23.274V209.44
	c0,6.427,2.605,12.245,6.818,16.456c4.211,4.213,10.029,6.818,16.456,6.818h186.166c12.853,0,23.274-10.42,23.274-23.274
	C512,151.697,488.512,99.336,450.587,61.413z"/>
<path style="fill:#D8143A;" d="M395.656,279.26H232.739V116.344c0-12.853-10.42-23.274-23.274-23.274
	C93.966,93.071,0,187.035,0,302.534c0,57.75,23.491,110.116,61.42,148.045C99.348,488.509,151.714,512,209.465,512
	c115.499,0,209.465-93.966,209.465-209.466C418.929,289.68,408.509,279.26,395.656,279.26z"/>
<path style="fill:#B8002B;" d="M232.739,116.344c0-12.853-10.42-23.274-23.274-23.274C93.966,93.071,0,187.035,0,302.534
	c0,57.75,23.491,110.116,61.42,148.045L232.739,279.26V116.344z"/>
<path style="fill:#7ED63E;" d="M302.56,0c-12.853,0-23.274,10.42-23.274,23.274V209.44c0,6.427,2.605,12.245,6.818,16.456
	L450.588,61.412C412.663,23.488,360.303,0,302.56,0z"/>
<g>
</g>
<g>
</g>
<g>
</g>
<g>
</g>
<g>
</g>
<g>
</g>
<g>
</g>
<g>
</g>
<g>
</g>
<g>
</g>
<g>
</g>
<g>
</g>
<g>
</g>
<g>
</g>
<g>
</g>
</svg>
